<svg width="13" height="15" viewBox="0 0 13 15" fill="none" xmlns="http://www.w3.org/2000/svg">
<path fill-rule="evenodd" clip-rule="evenodd" d="M1.79808 0.980769C1.34669 0.980769 0.980769 1.34669 0.980769 1.79808V12.2596C0.980769 12.711 1.34669 13.0769 1.79808 13.0769H10.9519C11.4033 13.0769 11.7692 12.711 11.7692 12.2596V4.61659L8.13341 0.980769H1.79808ZM0 1.79808C0 0.805027 0.805026 0 1.79808 0H8.20112C8.41789 0 8.62577 0.0861091 8.77905 0.239384L12.5106 3.97095C12.6639 4.12423 12.75 4.33211 12.75 4.54888V12.2596C12.75 13.2527 11.945 14.0577 10.9519 14.0577H1.79808C0.805026 14.0577 0 13.2527 0 12.2596V1.79808Z" fill="#FED32C"/>
<path fill-rule="evenodd" clip-rule="evenodd" d="M7.84613 0.648192C7.84613 0.153054 8.44477 -0.094911 8.79489 0.255204L12.4947 3.95504C12.8448 4.30516 12.5969 4.9038 12.1017 4.9038H8.4019C8.09496 4.9038 7.84613 4.65497 7.84613 4.34803V0.648192ZM8.8269 1.67423V3.92303H11.0757L8.8269 1.67423Z" fill="#FED32C"/>
<path fill-rule="evenodd" clip-rule="evenodd" d="M3.26923 8.33654C3.26923 8.06571 3.48878 7.84615 3.75961 7.84615H8.99038C9.26121 7.84615 9.48076 8.06571 9.48076 8.33654C9.48076 8.60737 9.26121 8.82692 8.99038 8.82692H3.75961C3.48878 8.82692 3.26923 8.60737 3.26923 8.33654Z" fill="#FED32C"/>
</svg>
