<svg width="21" height="20" viewBox="0 0 21 20" fill="none" xmlns="http://www.w3.org/2000/svg">
<path d="M18.4679 16.6667H3.46785C3.00785 16.6667 2.63452 16.9389 2.63452 17.2743C2.63452 17.6097 3.00785 17.8818 3.46785 17.8818H18.4679C18.9279 17.8818 19.3012 17.6097 19.3012 17.2743C19.3012 16.9389 18.9279 16.6667 18.4679 16.6667Z" fill="#33373E"/>
<path d="M8.61774 15.8323C9.24524 15.8323 9.87274 15.5932 10.3502 15.1157L16.6394 8.82651C16.9652 8.50068 16.9652 7.97401 16.6394 7.64818L9.77858 0.787344C9.45274 0.46151 8.92608 0.46151 8.60024 0.787344L2.31024 7.07568C1.35524 8.03068 1.35524 9.58568 2.31024 10.5407L6.88441 15.1148C7.36274 15.5932 7.99024 15.8323 8.61774 15.8323ZM9.19678 1.55707L16.2168 8.62909H14.8612H2.195C1.16428 8.70826 2.195 8.92501 2.195 8.62909L9.19678 1.55707Z" fill="#33373E"/>
<path d="M15.1345 13.681C15.1345 14.8676 16.0695 15.8335 17.2179 15.8335C18.3662 15.8335 19.3012 14.8676 19.3012 13.681C19.3012 12.7243 18.1062 10.8368 17.7395 10.2818C17.5087 9.93015 16.927 9.93015 16.6962 10.2818C16.3295 10.8368 15.1345 12.7243 15.1345 13.681Z" fill="#FED32C"/>
</svg>
