<svg width="21" height="20" viewBox="0 0 21 20" fill="none" xmlns="http://www.w3.org/2000/svg">
<path d="M18.4679 16.6666H3.46785C3.00785 16.6666 2.63452 16.9388 2.63452 17.2742C2.63452 17.6096 3.00785 17.8817 3.46785 17.8817H18.4679C18.9279 17.8817 19.3012 17.6096 19.3012 17.2742C19.3012 16.9388 18.9279 16.6666 18.4679 16.6666Z" fill="white"/>
<path d="M8.61774 15.8324C9.24524 15.8324 9.87274 15.5932 10.3502 15.1157L16.6394 8.82654C16.9652 8.50071 16.9652 7.97404 16.6394 7.64821L9.77858 0.787374C9.45274 0.461541 8.92608 0.461541 8.60024 0.787374L2.31024 7.07571C1.35524 8.03071 1.35524 9.58571 2.31024 10.5407L6.88441 15.1149C7.36274 15.5932 7.99024 15.8324 8.61774 15.8324ZM9.19678 1.5571L16.2168 8.62912H14.8612H2.195C1.16428 8.70829 2.195 8.92504 2.195 8.62912L9.19678 1.5571Z" fill="white"/>
<path d="M15.1345 13.6809C15.1345 14.8676 16.0695 15.8334 17.2179 15.8334C18.3662 15.8334 19.3012 14.8676 19.3012 13.6809C19.3012 12.7242 18.1062 10.8367 17.7395 10.2817C17.5087 9.93006 16.927 9.93006 16.6962 10.2817C16.3295 10.8367 15.1345 12.7242 15.1345 13.6809Z" fill="#FED32C"/>
</svg>
