<svg width="21" height="20" viewBox="0 0 21 20" fill="none" xmlns="http://www.w3.org/2000/svg">
<g clip-path="url(#clip0)">
<path d="M5.21955 0C4.82504 0 4.50525 0.319796 4.50525 0.714299V2.14286H5.9338V0.714299C5.9338 0.319796 5.61401 0 5.21955 0Z" fill="white"/>
<path d="M15.2193 0C14.8248 0 14.505 0.319796 14.505 0.714299V2.14286H15.9336V0.714299C15.9336 0.319796 15.6138 0 15.2193 0Z" fill="white"/>
<path d="M18.0765 2.14273H15.9336V4.99988C15.9336 5.39439 15.6139 5.71418 15.2193 5.71418C14.8248 5.71418 14.5051 5.39439 14.5051 4.99988V2.14273H5.93363V4.99988C5.93363 5.39439 5.61383 5.71418 5.21933 5.71418C4.82483 5.71418 4.50503 5.39439 4.50503 4.99988V2.14273H2.36222C1.17875 2.14273 0.21936 3.10212 0.21936 4.28559V17.857C0.21936 19.0405 1.17875 19.9999 2.36222 19.9999H18.0765C19.26 19.9999 20.2194 19.0405 20.2194 17.857V4.28559C20.2194 3.10212 19.26 2.14273 18.0765 2.14273ZM18.7908 17.857C18.7908 18.2515 18.471 18.5713 18.0765 18.5713H2.36222C1.96771 18.5713 1.64792 18.2515 1.64792 17.857V8.5713H18.7908V17.857Z" fill="white"/>
<path d="M15.0105 10.2095C14.7316 9.93042 14.2792 9.9303 14.0001 10.2092L8.79084 15.4185L6.43867 13.0663C6.15956 12.7874 5.70721 12.7876 5.42831 13.0667C5.1494 13.3458 5.14957 13.7981 5.42868 14.0771L8.28584 16.9342C8.56479 17.2131 9.01692 17.2131 9.29583 16.9342L15.0101 11.2199C15.2892 10.941 15.2894 10.4887 15.0105 10.2095Z" fill="#FED32C"/>
</g>
<defs>
<clipPath id="clip0">
<rect width="20" height="20" fill="white" transform="translate(0.21936)"/>
</clipPath>
</defs>
</svg>
