<svg width="20" height="20" viewBox="0 0 20 20" fill="none" xmlns="http://www.w3.org/2000/svg">
<g clip-path="url(#clip0)">
<path d="M9.53972 4.82882L9.7645 5.0961H10.1137H18.2311C18.7958 5.10343 19.25 5.56334 19.25 6.12841V6.12845V15.8833V15.8834C19.25 16.4485 18.7957 16.9084 18.2311 16.9157H1.76893C1.20429 16.9084 0.749973 16.4485 0.750001 15.8834V15.8833L0.750002 4.11865L0.750001 4.11778C0.749349 3.55224 1.20379 3.09167 1.76893 3.08433H8.07265L9.53972 4.82882Z" stroke="white" stroke-width="1.5"/>
<g clip-path="url(#clip1)">
<path d="M13.7989 15.7894C13.0968 13.476 14.5803 12.6313 14.5803 12.6313C14.4765 13.8657 15.178 14.8275 15.178 14.8275C15.436 14.7496 15.9285 14.3858 15.9285 14.3858C15.9285 14.8275 15.6687 15.7888 15.6687 15.7888C15.6687 15.7888 16.5783 15.0855 16.8647 13.9173C17.1507 12.749 16.3199 11.5762 16.3199 11.5762C16.37 12.4031 16.0903 13.2163 15.5422 13.8376C15.5697 13.8059 15.5927 13.7708 15.6103 13.7327C15.7088 13.5358 15.8669 13.024 15.7743 11.8388C15.644 10.1752 14.1366 9.47369 14.1366 9.47369C14.2665 10.4873 13.8769 10.7209 12.9643 12.6449C12.0517 14.5685 13.7989 15.7894 13.7989 15.7894Z" fill="#FED32C"/>
</g>
</g>
<defs>
<clipPath id="clip0">
<rect width="20" height="20" fill="white"/>
</clipPath>
<clipPath id="clip1">
<rect width="6.31579" height="6.31579" fill="white" transform="translate(11.6611 9.47369)"/>
</clipPath>
</defs>
</svg>
