<svg width="21" height="20" viewBox="0 0 21 20" fill="none" xmlns="http://www.w3.org/2000/svg">
<g clip-path="url(#clip0)">
<path d="M20.855 4.48775V3.83261H18.038V4.48775H19.1189V15.5123H18.038V16.1674H20.855V15.5123H19.774V4.48775H20.855Z" fill="#FED32C"/>
<path d="M0.976529 13.5008L4.27357 6.05525C4.50344 5.54183 4.92218 5.23093 5.48988 5.23093H5.61149C6.17883 5.23093 6.58435 5.54177 6.81398 6.05525L10.1111 13.5008C10.1787 13.6494 10.2193 13.7845 10.2193 13.9197C10.2193 14.4737 9.78689 14.9196 9.23283 14.9196C8.7464 14.9196 8.42204 14.6359 8.23292 14.2034L7.5979 12.7171H3.43596L2.77382 14.271C2.59812 14.6764 2.24688 14.9196 1.81443 14.9196C1.27373 14.9196 0.85498 14.4872 0.85498 13.9467C0.85498 13.798 0.908963 13.6494 0.976529 13.5008ZM6.82762 10.8793L5.51681 7.75787L4.20612 10.8793H6.82762Z" fill="white"/>
<path d="M11.2051 12.7575V12.7304C11.2051 11.1495 12.4077 10.4198 14.1238 10.4198C14.8536 10.4198 15.3807 10.5414 15.8941 10.7171V10.5955C15.8941 9.74409 15.3671 9.27125 14.3401 9.27125C13.7726 9.27125 13.3132 9.35228 12.9213 9.47395C12.7997 9.51446 12.7186 9.52793 12.6238 9.52793C12.1511 9.52793 11.7727 9.16311 11.7727 8.6902C11.7727 8.32532 12.0023 8.01454 12.3266 7.89287C12.9752 7.64966 13.678 7.51453 14.6374 7.51453C15.7588 7.51453 16.5697 7.81178 17.0832 8.32526C17.6237 8.86573 17.8669 9.66306 17.8669 10.636V13.933C17.8669 14.4871 17.421 14.9195 16.8669 14.9195C16.2724 14.9195 15.8805 14.5006 15.8805 14.0682V14.0546C15.3806 14.6086 14.6913 14.9734 13.6915 14.9734C12.3266 14.9736 11.2051 14.1899 11.2051 12.7575ZM15.921 12.2845V11.9197C15.5697 11.7576 15.1103 11.6494 14.6103 11.6494C13.7319 11.6494 13.1915 12.0008 13.1915 12.6493V12.6764C13.1915 13.2304 13.6509 13.5547 14.313 13.5547C15.2724 13.5547 15.921 13.0278 15.921 12.2845Z" fill="white"/>
</g>
<defs>
<clipPath id="clip0">
<rect width="20" height="20" fill="white" transform="translate(0.85498)"/>
</clipPath>
</defs>
</svg>
