<svg width="23" height="22" viewBox="0 0 23 22" fill="none" xmlns="http://www.w3.org/2000/svg">
<g clip-path="url(#clip0_2_2181)">
<path d="M22.2666 9.59999V3.99999C22.2666 3.57565 22.098 3.16868 21.798 2.86862C21.4979 2.56856 21.091 2.39999 20.6666 2.39999H3.06661C2.64227 2.39999 2.2353 2.56856 1.93524 2.86862C1.63518 3.16868 1.46661 3.57565 1.46661 3.99999V20C1.46661 20.4243 1.63518 20.8313 1.93524 21.1314C2.2353 21.4314 2.64227 21.6 3.06661 21.6H20.6666C21.091 21.6 21.4979 21.4314 21.798 21.1314C22.098 20.8313 22.2666 20.4243 22.2666 20V14.4M23.7546 8.79999H15.8666C15.0179 8.79999 14.204 9.13714 13.6039 9.73725C13.0038 10.3374 12.6666 11.1513 12.6666 12C12.6666 12.8487 13.0038 13.6626 13.6039 14.2627C14.204 14.8629 15.0179 15.2 15.8666 15.2H23.7546C23.7843 15.2 23.8128 15.1882 23.8338 15.1672C23.8548 15.1462 23.8666 15.1177 23.8666 15.088V8.91199C23.8666 8.88229 23.8548 8.8538 23.8338 8.8328C23.8128 8.81179 23.7843 8.79999 23.7546 8.79999Z" stroke="#FED32C"/>
</g>
<defs>
<clipPath id="clip0_2_2181">
<rect width="24" height="24" fill="white" transform="translate(0.666626)"/>
</clipPath>
</defs>
</svg>
