<svg width="24" height="24" viewBox="0 0 24 24" fill="none" xmlns="http://www.w3.org/2000/svg">
<g clip-path="url(#clip0_2_2160)">
<path d="M21.5 4H19.3333V5.33333H21.3333V20H2.66667V5.33333H4.66667V4H2.5C2.34416 4.0026 2.19035 4.03588 2.04738 4.09794C1.9044 4.15999 1.77505 4.24961 1.66671 4.36166C1.55837 4.47371 1.47316 4.60601 1.41596 4.751C1.35876 4.89599 1.33068 5.05083 1.33333 5.20667V20.1267C1.33068 20.2825 1.35876 20.4373 1.41596 20.5823C1.47316 20.7273 1.55837 20.8596 1.66671 20.9717C1.77505 21.0837 1.9044 21.1733 2.04738 21.2354C2.19035 21.2974 2.34416 21.3307 2.5 21.3333H21.5C21.6558 21.3307 21.8096 21.2974 21.9526 21.2354C22.0956 21.1733 22.225 21.0837 22.3333 20.9717C22.4416 20.8596 22.5268 20.7273 22.584 20.5823C22.6412 20.4373 22.6693 20.2825 22.6667 20.1267V5.20667C22.6693 5.05083 22.6412 4.89599 22.584 4.751C22.5268 4.60601 22.4416 4.47371 22.3333 4.36166C22.225 4.24961 22.0956 4.15999 21.9526 4.09794C21.8096 4.03588 21.6558 4.0026 21.5 4V4Z" fill="#FED32C"/>
<path d="M5.33334 9.33333H6.66668V10.6667H5.33334V9.33333Z" fill="#FED32C"/>
<path d="M9.33334 9.33333H10.6667V10.6667H9.33334V9.33333Z" fill="#FED32C"/>
<path d="M13.3333 9.33333H14.6667V10.6667H13.3333V9.33333Z" fill="#FED32C"/>
<path d="M17.3333 9.33333H18.6667V10.6667H17.3333V9.33333Z" fill="#FED32C"/>
<path d="M5.33334 12.6667H6.66668V14H5.33334V12.6667Z" fill="#FED32C"/>
<path d="M9.33334 12.6667H10.6667V14H9.33334V12.6667Z" fill="#FED32C"/>
<path d="M13.3333 12.6667H14.6667V14H13.3333V12.6667Z" fill="#FED32C"/>
<path d="M17.3333 12.6667H18.6667V14H17.3333V12.6667Z" fill="#FED32C"/>
<path d="M5.33334 16H6.66668V17.3333H5.33334V16Z" fill="#FED32C"/>
<path d="M9.33334 16H10.6667V17.3333H9.33334V16Z" fill="#FED32C"/>
<path d="M13.3333 16H14.6667V17.3333H13.3333V16Z" fill="#FED32C"/>
<path d="M17.3333 16H18.6667V17.3333H17.3333V16Z" fill="#FED32C"/>
<path d="M6.66667 6.66666C6.84348 6.66666 7.01305 6.59642 7.13807 6.4714C7.2631 6.34638 7.33333 6.17681 7.33333 6V1.99999C7.33333 1.82318 7.2631 1.65361 7.13807 1.52859C7.01305 1.40357 6.84348 1.33333 6.66667 1.33333C6.48986 1.33333 6.32029 1.40357 6.19526 1.52859C6.07024 1.65361 6 1.82318 6 1.99999V6C6 6.17681 6.07024 6.34638 6.19526 6.4714C6.32029 6.59642 6.48986 6.66666 6.66667 6.66666Z" fill="#FED32C"/>
<path d="M17.3333 6.66666C17.5101 6.66666 17.6797 6.59642 17.8047 6.4714C17.9298 6.34638 18 6.17681 18 6V1.99999C18 1.82318 17.9298 1.65361 17.8047 1.52859C17.6797 1.40357 17.5101 1.33333 17.3333 1.33333C17.1565 1.33333 16.9869 1.40357 16.8619 1.52859C16.7369 1.65361 16.6667 1.82318 16.6667 1.99999V6C16.6667 6.17681 16.7369 6.34638 16.8619 6.4714C16.9869 6.59642 17.1565 6.66666 17.3333 6.66666Z" fill="#FED32C"/>
<path d="M8.66666 4H15.3333V5.33333H8.66666V4Z" fill="#FED32C"/>
</g>
<defs>
<clipPath id="clip0_2_2160">
<rect width="24" height="24" fill="white"/>
</clipPath>
</defs>
</svg>
