<svg width="20" height="22" viewBox="0 0 20 22" fill="none" xmlns="http://www.w3.org/2000/svg">
<path d="M4.37501 0.17234C3.60157 0.17234 2.90782 0.331715 2.43954 0.56609C1.97548 0.800465 1.79736 1.06297 1.79736 1.25047C1.79736 1.43328 1.97548 1.70093 2.43954 1.93015C2.90782 2.16453 3.60157 2.32859 4.37501 2.32859C5.14845 2.32859 5.8422 2.16453 6.30626 1.93015C6.77501 1.70093 6.95314 1.43328 6.95314 1.25047C6.95314 1.06297 6.77501 0.800465 6.30626 0.56609C5.8422 0.331715 5.14845 0.17234 4.37501 0.17234V0.17234ZM11.875 1.67234C11.1016 1.67234 10.4078 1.83172 9.94376 2.06609C9.47501 2.30047 9.29689 2.56297 9.29689 2.75047C9.29689 2.93328 9.47501 3.20093 9.94376 3.43015C10.4078 3.66453 11.1016 3.82812 11.875 3.82812C12.0906 3.82812 12.2969 3.81406 12.4938 3.79062C12.6953 3.53328 12.9813 3.305 13.3141 3.15312C13.6984 2.97968 14.1438 2.83906 14.4531 2.75047C14.4531 2.56297 14.275 2.30047 13.8063 2.06609C13.3422 1.83172 12.6484 1.67234 11.875 1.67234V1.67234ZM1.79736 2.53437C1.77861 3.22156 2.52298 3.50187 2.9922 3.64062C3.83126 3.88437 4.91876 3.88437 5.75782 3.64062C6.35782 3.46906 6.94845 3.13812 6.95314 2.53437C6.19845 3.03265 5.09689 3.16672 4.37501 3.17187C3.46095 3.09547 2.50095 3.00078 1.79736 2.53437V2.53437ZM15.625 3.51453C14.8516 3.51453 14.1578 3.6739 13.6938 3.9125C13.225 4.14218 13.0469 4.40937 13.0469 4.59218C13.0469 4.77968 13.225 5.04218 13.6938 5.27656C14.1578 5.51093 14.8516 5.67031 15.625 5.67031C16.3984 5.67031 17.0922 5.51093 17.5563 5.27656C18.025 5.04218 18.2031 4.77968 18.2031 4.59218C18.2031 4.40937 18.025 4.14218 17.5563 3.9125C17.0922 3.6739 16.3984 3.51453 15.625 3.51453V3.51453ZM9.29689 4.03437V4.14687C9.43282 4.19375 9.56407 4.25 9.68595 4.31093C10.1078 4.52187 10.4734 4.81718 10.6609 5.1875C11.1391 5.30468 11.6781 5.34687 12.2031 5.31406V4.6625C12.0953 4.66718 11.9875 4.67187 11.875 4.67187C10.9891 4.67187 10.1828 4.49843 9.56407 4.18906C9.47032 4.14218 9.38126 4.09062 9.29689 4.03437V4.03437ZM1.79736 4.03906C1.78142 4.72343 2.52486 5.00468 2.9922 5.14531C3.31095 5.23437 3.6672 5.29531 4.03282 5.31406C4.12657 5.07031 4.29532 4.85468 4.51095 4.67187C3.91095 4.68593 3.30626 4.61093 2.75782 4.45625C2.39267 4.34843 2.06923 4.2125 1.79736 4.03906V4.03906ZM7.37501 4.67187C6.60157 4.67187 5.90782 4.83593 5.44376 5.06562C4.97501 5.3 4.79689 5.5625 4.79689 5.75C4.79689 5.9375 4.97501 6.2 5.44376 6.43437C5.90782 6.66875 6.60157 6.82812 7.37501 6.82812C8.14845 6.82812 8.8422 6.66875 9.30626 6.43437C9.77501 6.2 9.95314 5.9375 9.95314 5.75C9.95314 5.5625 9.77501 5.3 9.30626 5.06562C8.8422 4.83593 8.14845 4.67187 7.37501 4.67187ZM1.79736 5.53906C1.78142 6.22343 2.52486 6.50468 2.9922 6.64531C3.28751 6.72968 3.61564 6.78593 3.95314 6.80937V6.1625C3.54064 6.13437 3.13751 6.06406 2.75782 5.95625C2.39267 5.84843 2.06923 5.7125 1.79736 5.53906V5.53906ZM13.0469 5.88125C13.0375 6.57031 13.7688 6.84687 14.2422 6.9875C15.0813 7.23125 16.1688 7.23125 17.0078 6.9875C17.6031 6.81406 18.1984 6.48593 18.2031 5.88125C18.1188 5.93281 18.0297 5.98437 17.9359 6.03125C17.3172 6.34062 16.5109 6.51406 15.625 6.51406C14.7391 6.51406 13.9328 6.34062 13.3141 6.03125C13.2203 5.98437 13.1313 5.93281 13.0469 5.88125ZM10.7969 6.07812V6.72031C11.2375 6.80937 11.7297 6.84218 12.2031 6.81406V6.16718C11.7297 6.19062 11.2516 6.1625 10.7969 6.07812V6.07812ZM4.79689 7.03437C4.77345 7.31562 4.90001 7.54531 5.0547 7.68125C5.25157 7.85 5.57032 8.02343 5.9922 8.14531C6.83126 8.38437 7.91876 8.38437 8.75782 8.14531C9.1797 8.02343 9.49845 7.85 9.69532 7.68125C9.92501 7.48906 9.95314 7.30156 9.95314 7.03437C9.86876 7.09062 9.7797 7.14218 9.68595 7.18906C9.0672 7.49843 8.26095 7.67187 7.37501 7.67187C6.48907 7.67187 5.68282 7.49843 5.06407 7.18906C4.97032 7.14218 4.88126 7.09062 4.79689 7.03437ZM1.79736 7.03906C1.78142 7.72343 2.52486 8.00468 2.9922 8.14531C3.28751 8.22968 3.61564 8.28593 3.95314 8.30937V7.6625C3.54064 7.63437 3.13751 7.56406 2.75782 7.45625C2.39267 7.34843 2.06923 7.2125 1.79736 7.03906V7.03906ZM13.0469 7.38125C13.0375 8.07031 13.7688 8.34687 14.2422 8.4875C15.0813 8.73125 16.1688 8.73125 17.0078 8.4875C17.6031 8.31406 18.1984 7.98593 18.2031 7.38125C17.9313 7.55468 17.6078 7.69062 17.2422 7.79843C16.225 8.09375 15.025 8.09375 14.0078 7.79843C13.6422 7.69062 13.3188 7.55468 13.0469 7.38125ZM10.7969 7.57812V8.22031C11.2375 8.30937 11.7297 8.34218 12.2031 8.31406V7.66718C11.7297 7.69062 11.2516 7.6625 10.7969 7.57812V7.57812ZM1.79736 8.53906C1.78142 9.22343 2.52486 9.50468 2.9922 9.64531C3.28751 9.72968 3.61564 9.78593 3.95314 9.80937V9.1625C3.54064 9.13437 3.13751 9.06406 2.75782 8.95625C2.39267 8.84843 2.06923 8.7125 1.79736 8.53906V8.53906ZM4.79689 8.53906C4.77345 8.82031 4.90001 9.04531 5.0547 9.18125C5.25157 9.35 5.57032 9.52343 5.9922 9.64531C6.83126 9.88437 7.91876 9.88437 8.75782 9.64531C9.1797 9.52343 9.49845 9.35 9.69532 9.18125C9.92501 8.98906 9.95314 8.80625 9.95314 8.53906C9.68126 8.7125 9.35782 8.84843 8.9922 8.95625C7.97501 9.24687 6.77501 9.24687 5.75782 8.95625C5.3922 8.84843 5.06876 8.7125 4.79689 8.53906ZM13.0469 8.88125C13.0375 9.57031 13.7688 9.84687 14.2422 9.9875C15.0813 10.2312 16.1688 10.2312 17.0078 9.9875C17.6031 9.81406 18.1984 9.48593 18.2031 8.88125C17.9313 9.05468 17.6078 9.19062 17.2422 9.29843C16.225 9.59375 15.025 9.59375 14.0078 9.29843C13.6422 9.19062 13.3188 9.05468 13.0469 8.88125ZM10.7969 9.07812V9.72031C11.2375 9.80937 11.7297 9.84218 12.2031 9.81406V9.16718C11.7297 9.19062 11.2516 9.1625 10.7969 9.07812V9.07812ZM4.79689 10.0391V10.1469C4.93282 10.1937 5.06407 10.25 5.18595 10.3109C5.60782 10.5219 5.97345 10.8172 6.16095 11.1875C6.97189 11.3844 7.97501 11.3703 8.75782 11.1453C9.1797 11.0234 9.49845 10.85 9.69532 10.6812C9.92501 10.4891 9.95314 10.3062 9.95314 10.0391C9.68126 10.2125 9.35782 10.3484 8.9922 10.4562C7.97501 10.7469 6.77501 10.7469 5.75782 10.4562C5.3922 10.3484 5.06876 10.2125 4.79689 10.0391V10.0391ZM13.0469 10.3812C13.0375 11.0703 13.7688 11.3469 14.2422 11.4875C15.0813 11.7312 16.1688 11.7312 17.0078 11.4875C17.6031 11.3141 18.1984 10.9859 18.2031 10.3812C17.9313 10.5547 17.6078 10.6906 17.2422 10.7984C16.225 11.0937 15.025 11.0937 14.0078 10.7984C13.6422 10.6906 13.3188 10.5547 13.0469 10.3812V10.3812ZM10.7969 10.5781V11.2203C11.2375 11.3094 11.7297 11.3422 12.2031 11.3141V10.6672C11.7297 10.6906 11.2516 10.6625 10.7969 10.5781V10.5781ZM2.87501 10.6719C2.10204 10.6719 1.40829 10.8359 0.939543 11.0656C0.47548 11.3 0.297355 11.5625 0.297355 11.75C0.297355 11.9375 0.47548 12.2 0.939543 12.4344C1.40829 12.6687 2.10204 12.8281 2.87501 12.8281C3.64845 12.8281 4.3422 12.6687 4.80626 12.4344C5.27501 12.2 5.45314 11.9375 5.45314 11.75C5.45314 11.5625 5.27501 11.3 4.80626 11.0656C4.3422 10.8359 3.64845 10.6719 2.87501 10.6719V10.6719ZM9.95314 11.5391C9.68126 11.7125 9.35782 11.8484 8.9922 11.9562C8.14845 12.1953 7.18282 12.2375 6.29689 12.0781V12.7203C7.08439 12.8844 8.0172 12.8562 8.75782 12.6453C9.34845 12.4719 9.94845 12.1391 9.95314 11.5391V11.5391ZM13.0469 11.8812C13.0328 12.5469 13.7359 12.8328 14.2 12.9734C14.4625 12.7625 14.7016 12.6031 14.9828 12.4859C14.6453 12.4484 14.3172 12.3875 14.0078 12.2984C13.6422 12.1906 13.3188 12.0547 13.0469 11.8812V11.8812ZM18.2031 11.8812C18.0719 11.9656 17.9266 12.0406 17.7672 12.1109C17.9125 12.125 18.0578 12.1437 18.1938 12.1672C18.2125 12.0734 18.2031 11.9797 18.2031 11.8812V11.8812ZM10.7969 12.0781V12.7156C11.3078 12.8141 11.7344 12.8375 12.2031 12.8187V12.1672C11.7297 12.1906 11.2516 12.1625 10.7969 12.0781V12.0781ZM17.125 12.9219C16.3516 12.9219 15.6578 13.0859 15.1938 13.3156C14.725 13.55 14.5469 13.8125 14.5469 14C14.5469 14.1875 14.725 14.45 15.1938 14.6844C15.6578 14.9187 16.3516 15.0781 17.125 15.0781C17.8984 15.0781 18.5922 14.9187 19.0563 14.6844C19.525 14.45 19.7031 14.1875 19.7031 14C19.7031 13.8125 19.525 13.55 19.0563 13.3156C18.5922 13.0859 17.8984 12.9219 17.125 12.9219ZM0.297355 13.0344C0.283762 13.7281 1.01501 14.0047 1.49267 14.1453C2.33173 14.3844 3.41876 14.3844 4.25782 14.1453C4.85314 13.9719 5.44845 13.6391 5.45314 13.0344C5.36876 13.0906 5.2797 13.1422 5.18595 13.1891C4.5672 13.4984 3.76095 13.6719 2.87501 13.6719C1.95579 13.5969 1.00564 13.5031 0.297355 13.0344V13.0344ZM9.95314 13.0391C9.68126 13.2125 9.35782 13.3484 8.9922 13.4562C8.14845 13.6953 7.18282 13.7375 6.29689 13.5781V14.2203C7.08439 14.3844 8.0172 14.3562 8.75782 14.1453C9.34845 13.9719 9.94845 13.6391 9.95314 13.0391V13.0391ZM13.0469 13.3812C13.0281 13.8641 13.4219 14.1359 13.6938 14.2766C13.6938 14.2766 13.6984 14.2812 13.7031 14.2812V13.7C13.4594 13.6109 13.2391 13.5031 13.0469 13.3812V13.3812ZM0.297355 14.5391C0.281418 15.2234 1.02486 15.5047 1.49267 15.6453C2.33173 15.8844 3.41876 15.8844 4.25782 15.6453C4.84845 15.4719 5.44845 15.1391 5.45314 14.5391C5.18126 14.7125 4.85782 14.8484 4.4922 14.9562C3.47501 15.2469 2.27548 15.2469 1.25829 14.9562C0.892668 14.8484 0.56923 14.7125 0.297355 14.5391V14.5391ZM6.29689 15.0781V15.7156C6.52657 15.7672 6.77501 15.8 7.03282 15.8187C7.12657 15.5703 7.29532 15.3547 7.51095 15.1719C7.10314 15.1812 6.69064 15.1484 6.29689 15.0781V15.0781ZM10.375 15.1719C9.60157 15.1719 8.90782 15.3359 8.44376 15.5656C7.97501 15.8 7.79689 16.0625 7.79689 16.25C7.79689 16.4375 7.97501 16.7 8.44376 16.9344C8.90782 17.1687 9.60157 17.3281 10.375 17.3281C11.1484 17.3281 11.8422 17.1687 12.3063 16.9344C12.775 16.7 12.9531 16.4375 12.9531 16.25C12.9531 16.0625 12.775 15.8 12.3063 15.5656C11.8422 15.3359 11.1484 15.1719 10.375 15.1719ZM14.5469 15.2844C14.5422 15.9781 15.2594 16.2547 15.7422 16.3953C16.5813 16.6344 17.6688 16.6344 18.5078 16.3953C19.1031 16.2219 19.6984 15.8891 19.7031 15.2844C18.9625 15.7344 17.8422 15.9172 17.125 15.9219C16.2063 15.8469 15.2547 15.7531 14.5469 15.2844ZM0.297355 16.0391C0.281418 16.7234 1.02486 17.0047 1.49267 17.1453C2.33173 17.3844 3.41876 17.3844 4.25782 17.1453C4.84845 16.9719 5.44845 16.6391 5.45314 16.0391C5.18126 16.2125 4.85782 16.3484 4.4922 16.4562C3.47501 16.7469 2.27548 16.7469 1.25829 16.4562C0.892668 16.3484 0.56923 16.2125 0.297355 16.0391V16.0391ZM14.5469 16.7891C14.5375 17.4781 15.2688 17.7547 15.7422 17.8953C16.5813 18.1344 17.6688 18.1344 18.5078 17.8953C19.0984 17.7219 19.6984 17.3891 19.7031 16.7891C19.4313 16.9625 19.1078 17.0984 18.7422 17.2062C17.725 17.4969 16.525 17.4969 15.5078 17.2062C15.1422 17.0984 14.8188 16.9625 14.5469 16.7891ZM7.79689 17.5344C7.77345 17.8156 7.90001 18.0453 8.0547 18.1812C8.25157 18.35 8.57032 18.5234 8.9922 18.6453C9.83126 18.8844 10.9188 18.8844 11.7578 18.6453C12.1797 18.5234 12.4984 18.35 12.6953 18.1812C12.8922 18.0125 12.9531 17.8672 12.9531 17.75V17.5344C12.8688 17.5906 12.7797 17.6422 12.6859 17.6891C12.0672 17.9984 11.2609 18.1719 10.375 18.1719C9.48907 18.1719 8.68282 17.9984 8.06407 17.6891C7.97032 17.6422 7.88126 17.5906 7.79689 17.5344ZM0.297355 17.5391C0.281418 18.2234 1.02486 18.5047 1.49267 18.6453C2.33173 18.8844 3.41876 18.8844 4.25782 18.6453C4.84845 18.4719 5.44845 18.1391 5.45314 17.5391C5.18126 17.7125 4.85782 17.8484 4.4922 17.9562C3.47501 18.2469 2.27548 18.2469 1.25829 17.9562C0.892668 17.8484 0.56923 17.7125 0.297355 17.5391V17.5391ZM14.5469 18.2891C14.5375 18.9781 15.2688 19.2547 15.7422 19.3953C16.5813 19.6344 17.6688 19.6344 18.5078 19.3953C19.0984 19.2219 19.6984 18.8891 19.7031 18.2891C19.4313 18.4625 19.1078 18.5984 18.7422 18.7062C17.725 18.9969 16.525 18.9969 15.5078 18.7062C15.1422 18.5984 14.8188 18.4625 14.5469 18.2891ZM0.297355 19.0391C0.281418 19.7234 1.02486 20.0047 1.49267 20.1453C2.33173 20.3844 3.41876 20.3844 4.25782 20.1453C4.84845 19.9719 5.44845 19.6391 5.45314 19.0391C5.18126 19.2125 4.85782 19.3484 4.4922 19.4562C3.47501 19.7469 2.27548 19.7469 1.25829 19.4562C0.892668 19.3484 0.56923 19.2125 0.297355 19.0391V19.0391ZM7.79689 19.0391C7.77814 19.5219 8.17189 19.7937 8.44376 19.9344C8.90782 20.1687 9.60157 20.3281 10.375 20.3281C11.1484 20.3281 11.8422 20.1687 12.3063 19.9344C12.7703 19.6437 12.9531 19.5312 12.9531 19.0391C12.6813 19.2125 12.3578 19.3484 11.9922 19.4562C10.975 19.7469 9.77501 19.7469 8.75782 19.4562C8.3922 19.3484 8.06876 19.2125 7.79689 19.0391ZM14.5469 19.7891C14.5281 20.2719 14.9219 20.5437 15.1938 20.6844C15.6578 20.9187 16.3516 21.0781 17.125 21.0781C17.8984 21.0781 18.5922 20.9187 19.0563 20.6844C19.5203 20.3937 19.7031 20.2812 19.7031 19.7891C19.4313 19.9625 19.1078 20.0984 18.7422 20.2062C17.725 20.4969 16.525 20.4969 15.5078 20.2062C15.1422 20.0984 14.8188 19.9625 14.5469 19.7891ZM0.297355 20.5391C0.27673 21.0172 0.66673 21.2937 0.939543 21.4344C1.40829 21.6687 2.10204 21.8281 2.87501 21.8281C3.64845 21.8281 4.3422 21.6687 4.80626 21.4344C5.27032 21.1437 5.45314 21.0312 5.45314 20.5391C5.18126 20.7125 4.85782 20.8484 4.4922 20.9562C3.47501 21.2469 2.27548 21.2469 1.25829 20.9562C0.892668 20.8484 0.56923 20.7125 0.297355 20.5391V20.5391Z" fill="#FED32C"/>
</svg>
