<svg width="27" height="29" viewBox="0 0 27 29" fill="none" xmlns="http://www.w3.org/2000/svg">
<path fill-rule="evenodd" clip-rule="evenodd" d="M9.14403 3.61183C9.14403 2.92148 9.70368 2.36183 10.394 2.36183H14.6975C15.3879 2.36183 15.9475 2.92148 15.9475 3.61183V5.61585H9.14403V3.61183ZM17.4475 3.61183V5.61585H21.1629C22.6817 5.61585 23.9129 6.84706 23.9129 8.36585V14.929C23.496 14.3804 22.9885 13.9043 22.4129 13.523V8.36585C22.4129 7.67549 21.8532 7.11585 21.1629 7.11585H16.6975H8.39403H3.61182C2.92146 7.11585 2.36182 7.67549 2.36182 8.36585V19.3882C2.36182 20.0785 2.92146 20.6382 3.61181 20.6382H13.2584C13.4455 21.1763 13.7057 21.6803 14.0271 22.1382H3.61181C2.09303 22.1382 0.861816 20.907 0.861816 19.3882V8.36585C0.861816 6.84707 2.09303 5.61585 3.61182 5.61585H7.64403V3.61183C7.64403 2.09305 8.87525 0.861832 10.394 0.861832H14.6975C16.2163 0.861832 17.4475 2.09305 17.4475 3.61183Z" fill="#FED32C"/>
<path fill-rule="evenodd" clip-rule="evenodd" d="M19.9816 22.7931L25.4526 19.2396L19.9816 15.686V18.4962H14.8052V19.9962H19.9816V22.7931Z" fill="#FED32C"/>
<path fill-rule="evenodd" clip-rule="evenodd" d="M18.9525 28.7072L13.4814 25.1536L18.9525 21.6001V24.4102H24.1289V25.9102H18.9525V28.7072Z" fill="#FED32C"/>
</svg>
