<svg width="232" height="166" viewBox="0 0 232 166" fill="none" xmlns="http://www.w3.org/2000/svg">
<path opacity="0.2" d="M227.252 89.4811C227.252 135.109 161.148 165.546 115.521 165.546C69.8931 165.546 4.51709 135.109 4.51709 89.4811C4.51709 43.8538 69.8931 0.314453 115.521 0.314453C161.148 0.314453 227.252 43.8538 227.252 89.4811Z" fill="#FED32C"/>
<path opacity="0.3" d="M231.619 41.4393C231.619 78.6246 146.882 149.531 109.697 149.531C72.5117 149.531 0.149414 78.6246 0.149414 41.4393C0.149414 4.25399 72.5117 14.8712 109.697 14.8712C146.882 14.8712 231.619 4.25399 231.619 41.4393Z" fill="#FED32C"/>
<circle opacity="0.7" cx="115.52" cy="76.3785" r="54.2279" fill="#FED32C"/>
<g clip-path="url(#clip0_1618_1134)">
<path d="M116.249 85.7545C114.197 85.7545 112.518 84.1012 112.518 82.0804C112.518 80.0596 114.197 78.4063 116.249 78.4063C118.3 78.4063 119.979 80.0596 119.979 82.0804C119.979 84.1012 118.3 85.7545 116.249 85.7545ZM105.057 69.221H106.923V65.5469C106.923 60.4766 111.101 56.3616 116.249 56.3616C121.397 56.3616 125.575 60.4766 125.575 65.5469H122.031C122.031 62.4055 119.438 59.852 116.249 59.852C113.059 59.852 110.466 62.4055 110.466 65.5469V69.221H127.44C129.492 69.221 131.17 70.8743 131.17 72.8951V91.2657C131.17 93.2865 129.492 94.9398 127.44 94.9398H105.057C103.006 94.9398 101.327 93.2865 101.327 91.2657V72.8951C101.327 70.8743 103.006 69.221 105.057 69.221ZM105.057 91.2657H127.44V72.8951H105.057V91.2657Z" fill="white"/>
</g>
<defs>
<clipPath id="clip0_1618_1134">
<rect width="43.6735" height="43.6735" fill="white" transform="translate(94.0479 54.1779)"/>
</clipPath>
</defs>
</svg>
