<svg width="29" height="36" viewBox="0 0 29 36" fill="none" xmlns="http://www.w3.org/2000/svg">
<path d="M9.61474 35.6444C4.35268 35.6141 0 24.8725 0 19.402C0 10.466 6.70352 8.50966 9.287 8.50966C10.4513 8.50966 11.6945 8.96687 12.791 9.37147C13.5578 9.65369 14.3508 9.94504 14.7919 9.94504C15.0559 9.94504 15.678 9.6972 16.2272 9.47975C17.3986 9.01342 18.8562 8.43384 20.5536 8.43384C20.5566 8.43384 20.5607 8.43384 20.5637 8.43384C21.8311 8.43384 25.674 8.71199 27.9844 12.1816L28.5256 12.9949L27.7467 13.5826C26.634 14.4222 24.6038 15.9537 24.6038 18.9873C24.6038 22.5803 26.9031 23.9621 28.0077 24.6267C28.4953 24.92 29 25.2225 29 25.884C29 26.316 25.5526 35.5908 20.5465 35.5908C19.3215 35.5908 18.4556 35.2226 17.6919 34.8979C16.9191 34.5692 16.2524 34.286 15.1509 34.286C14.5925 34.286 13.8864 34.55 13.1389 34.8302C12.1174 35.2114 10.9611 35.6444 9.64913 35.6444H9.61474Z" fill="#20242A"/>
<path d="M21.084 0C21.2143 4.70099 17.8524 7.96232 14.4944 7.75778C13.941 4.00623 17.852 0 21.084 0Z" fill="#20242A"/>
</svg>
