<svg width="15" height="14" viewBox="0 0 15 14" fill="none" xmlns="http://www.w3.org/2000/svg">
<g clip-path="url(#clip0)">
<path d="M4.01275 3.74609H3.8372L3.50916 5.38672H4.34079L4.01275 3.74609Z" fill="white"/>
<path d="M10.6479 7.02734C10.8251 7.5031 11.0606 7.88821 11.3213 8.21589C11.582 7.88821 11.8449 7.50307 12.022 7.02734H10.6479Z" fill="white"/>
<path d="M12.9893 2.48828H7.89564L8.95773 11.0108C8.97651 11.3593 8.88122 11.6875 8.65372 11.9444L6.8551 14H12.9893C13.6678 14 14.2198 13.448 14.2198 12.7695V3.74609C14.2198 3.06759 13.6678 2.48828 12.9893 2.48828ZM12.9893 7.02734H12.8798C12.6464 7.7761 12.2763 8.36199 11.8917 8.82388C12.193 9.09934 12.5152 9.32531 12.8355 9.57841C13.0121 9.7198 13.041 9.97773 12.8992 10.1548C12.758 10.3316 12.4991 10.3602 12.3228 10.2185C11.9748 9.94375 11.648 9.71378 11.3213 9.41399C10.9946 9.71378 10.6953 9.94375 10.3472 10.2185C10.1709 10.3602 9.912 10.3316 9.77085 10.1548C9.62904 9.97773 9.65789 9.7198 9.83453 9.57841C10.1549 9.32531 10.4497 9.09934 10.751 8.82388C10.3664 8.36202 10.0236 7.77612 9.79026 7.02734H9.68072C9.45402 7.02734 9.27057 6.84389 9.27057 6.61719C9.27057 6.39048 9.45402 6.20703 9.68072 6.20703H10.9112V5.79688C10.9112 5.57017 11.0946 5.38672 11.3213 5.38672C11.5481 5.38672 11.7315 5.57017 11.7315 5.79688V6.20703H12.9893C13.216 6.20703 13.3995 6.39048 13.3995 6.61719C13.3995 6.84389 13.216 7.02734 12.9893 7.02734Z" fill="white"/>
<path d="M6.89609 1.07786C6.81958 0.463422 6.29447 0 5.67524 0H1.4502C0.771688 0 0.219727 0.551961 0.219727 1.23047V10.3086C0.219727 10.9871 0.771688 11.5391 1.4502 11.5391C3.90211 11.5391 5.66597 11.5391 7.91839 11.5391C8.03804 11.4023 8.13834 11.3166 8.14258 11.1381C8.14362 11.0934 6.90164 1.12227 6.89609 1.07786ZM5.24945 7.83964C5.03195 7.88441 4.81164 7.7432 4.7668 7.518L4.50466 6.20703H3.34498L3.08284 7.518C3.03879 7.73989 2.82487 7.88569 2.60019 7.83964C2.3783 7.79518 2.23409 7.5793 2.27855 7.357L3.09883 3.25544C3.13728 3.06398 3.30552 2.92578 3.50098 2.92578H4.34863C4.54409 2.92578 4.71233 3.06398 4.75078 3.25544L5.57109 7.357C5.61555 7.5793 5.47137 7.79518 5.24945 7.83964Z" fill="white"/>
<path d="M5.01196 12.3594L5.08235 12.9221C5.12927 13.299 5.37968 13.6833 5.79159 13.8752C6.56892 13.0195 6.09863 13.5372 7.16859 12.3594H5.01196Z" fill="white"/>
</g>
<defs>
<clipPath id="clip0">
<rect width="14" height="14" fill="white" transform="translate(0.219727)"/>
</clipPath>
</defs>
</svg>
