<svg width="110" height="110" viewBox="0 0 110 110" fill="none" xmlns="http://www.w3.org/2000/svg">
<circle cx="55" cy="55" r="55" fill="url(#paint0_linear_132:55)"/>
<ellipse cx="69.7168" cy="52.6367" rx="3.75977" ry="5.15625" fill="white"/>
<ellipse cx="62.2535" cy="76.035" rx="3.43469" ry="4.74795" transform="rotate(-30 62.2535 76.035)" fill="white"/>
<ellipse rx="3.43469" ry="4.74795" transform="matrix(-0.866025 -0.5 -0.5 0.866025 48.7441 76.0351)" fill="white"/>
<path d="M72.4311 72.9955C72.4311 80.6649 64.8059 87.1951 54.9744 87.1951C45.1429 87.1951 37.5177 80.6649 37.5177 72.9955C37.5177 65.3261 45.1429 58.7958 54.9744 58.7958C64.8059 58.7958 72.4311 65.3261 72.4311 72.9955Z" stroke="white" stroke-width="2"/>
<path d="M77.303 34.0799C74.7749 36.0617 73.8419 38.0584 73.6914 38.8091C83.2622 39.1694 82.6452 46.1655 81.1404 49.6186C81.2156 49.6936 81.7724 49.3934 83.3976 47.5918C85.4292 45.3398 84.0748 41.7366 82.7205 39.4847C81.637 37.6831 81.3661 33.1791 81.3661 31.1523C81.0651 31.3025 79.8312 32.0982 77.303 34.0799Z" fill="white"/>
<path d="M31.1931 34.0799C33.7212 36.0617 34.6542 38.0584 34.8047 38.8091C25.2339 39.1694 25.8509 46.1655 27.3557 49.6186C27.2805 49.6936 26.7237 49.3934 25.0985 47.5918C23.0669 45.3398 24.4213 41.7366 25.7756 39.4847C26.8591 37.6831 27.13 33.1791 27.13 31.1523C27.431 31.3025 28.6649 32.0982 31.1931 34.0799Z" fill="white"/>
<path d="M79.4902 23.507C74.594 26.1337 70.6012 30.2925 69.2168 32.0436C57.5008 20.8366 45.5371 27.374 41.0197 32.0436C39.7811 29.7818 36.3421 24.9079 32.495 23.507C28.648 22.1062 22.7317 21.61 20.2544 21.5371C20.6187 23.7259 21.1288 29.1543 20.2544 33.3569C19.1615 38.6102 18.0686 39.4857 17.6314 44.9579C17.2817 49.3356 23.4603 54.2241 26.5933 56.1211L22.3438 71.662C24.8939 75.529 31.7081 85.6269 37.3038 90.7051C42.8995 95.7832 51.876 99.0957 55.6647 100.117C58.4334 99.0957 65.2386 96.221 70.3097 92.8939C75.3809 89.5669 83.789 77.353 87.3592 71.662L83.2061 56.1211C85.3191 54.8077 89.9821 51.218 91.7308 47.3656C93.9166 42.5501 91.5122 35.3269 89.545 30.9492C87.9712 27.447 88.8892 23.2152 89.545 21.5371C88.2335 21.0993 84.3864 20.8804 79.4902 23.507Z" stroke="white" stroke-width="2"/>
<path d="M53.2812 53.1738C53.2812 59.7592 47.9428 65.0977 41.3574 65.0977C37.8859 65.0977 34.7609 63.6142 32.582 61.2465C32.0096 60.625 31.503 59.9422 31.0718 59.2097C30.0308 57.4392 29.4336 55.3761 29.4336 53.1738C29.4336 46.5885 34.7721 41.25 41.3574 41.25C43.5602 41.25 45.6232 41.8472 47.3933 42.8887C48.1258 43.3194 48.8081 43.826 49.4296 44.3989C51.7973 46.5768 53.2812 49.7023 53.2812 53.1738Z" fill="#F0CD00"/>
<path d="M53.2815 53.1747C53.2815 59.6116 48.1815 64.8571 41.8015 65.0902C35.4215 64.8571 30.3215 59.6116 30.3215 53.1747C30.3215 46.7378 35.4215 41.4923 41.8015 41.2591C48.1815 41.4923 53.2815 46.7378 53.2815 53.1747Z" fill="#FFDE50"/>
<path d="M49.4302 44.3995L32.5825 61.2472C32.0102 60.6257 31.5035 59.9428 31.0723 59.2104L47.3939 42.8893C48.1263 43.32 48.8087 43.8267 49.4302 44.3995Z" fill="#FFEA94"/>
<path d="M52.4596 48.8154L36.9985 64.2765C35.904 63.8462 34.8883 63.2588 33.9796 62.5419L50.7255 45.796C51.4424 46.7046 52.0299 47.7204 52.4596 48.8154Z" fill="#FFEA94"/>
<path d="M50.6228 53.1731C50.6228 58.2901 46.4743 62.4386 41.3573 62.4386C39.575 62.4386 37.9106 61.9354 36.4977 61.0633C35.8821 60.6836 35.3146 60.2335 34.8055 59.7244C34.4312 59.3506 34.0886 58.9442 33.7825 58.5106C33.361 57.9134 33.0082 57.2642 32.7361 56.5745C32.3331 55.5549 32.1063 54.4463 32.0927 53.287C32.0917 53.249 32.0917 53.2111 32.0917 53.1731C32.0917 48.0561 36.2398 43.9075 41.3573 43.9075C41.3952 43.9075 41.4337 43.9075 41.4717 43.9085C42.6309 43.9221 43.7391 44.1494 44.7587 44.5519C45.4484 44.8245 46.0976 45.1768 46.6948 45.5983C47.1284 45.9049 47.5343 46.2471 47.9086 46.6213C48.4177 47.1299 48.8678 47.6979 49.2475 48.3135C50.1196 49.7264 50.6228 51.3908 50.6228 53.1731Z" fill="#FAA300"/>
<path d="M47.9086 46.6213L34.8055 59.7244C34.4312 59.3506 34.0886 58.9442 33.7825 58.5106C33.361 57.9134 33.0082 57.2642 32.7361 56.5745C32.3331 55.5549 32.1063 54.4463 32.0927 53.287C32.0917 53.249 32.0917 53.2111 32.0917 53.1731C32.0917 48.0561 36.2398 43.9075 41.3573 43.9075C41.3952 43.9075 41.4337 43.9075 41.4717 43.9085C42.6309 43.9221 43.7391 44.1494 44.7587 44.5519C45.4484 44.8245 46.0976 45.1768 46.6948 45.5983C47.1284 45.9049 47.5343 46.2471 47.9086 46.6213Z" fill="#FFBD00"/>
<path d="M50.6239 53.1731C50.6239 58.2901 46.4754 62.4386 41.3583 62.4386C41.1826 62.4386 41.0084 62.4338 40.8351 62.424C45.7088 62.153 49.577 58.1144 49.577 53.1731C49.577 48.2318 45.7088 44.1932 40.8351 43.9221C41.0084 43.9124 41.1826 43.9075 41.3583 43.9075C46.4754 43.9075 50.6239 48.0561 50.6239 53.1731Z" fill="#F68E00"/>
<path d="M47.1529 53.0132C46.7484 52.4902 46.1381 52.1309 45.3218 51.9356C46.3613 51.4054 46.818 50.5056 46.6926 49.2359C46.6507 48.7754 46.5235 48.3764 46.3106 48.0382C46.0976 47.6999 45.8102 47.4279 45.4472 47.2221C45.0845 47.0161 44.6901 46.8593 44.2647 46.7512C43.8393 46.6431 43.3509 46.5646 42.7998 46.5158V43.879H41.1886V46.4425C40.9096 46.4425 40.4841 46.4495 39.9121 46.4635V43.879H38.3007V46.5158C38.0704 46.5228 37.7321 46.5264 37.2857 46.5264L35.0675 46.5158V48.2319H36.2289C36.759 48.2319 37.0695 48.4691 37.1601 48.9434V51.9464C37.23 51.9464 37.2857 51.95 37.3276 51.957H37.1601V56.1632C37.1044 56.5188 36.9021 56.6968 36.5533 56.6968H35.392L35.0676 58.6117H37.1603C37.2929 58.6117 37.4846 58.6135 37.7358 58.6166C37.9869 58.6201 38.1752 58.6219 38.3008 58.6219V61.2901H39.9125V58.6533C40.2054 58.6604 40.6309 58.6638 41.1889 58.6638V61.2901H42.8002V58.6219C43.3723 58.5941 43.8798 58.542 44.3225 58.465C44.7655 58.388 45.1894 58.2679 45.5939 58.1038C45.9983 57.94 46.3366 57.7358 46.6086 57.4917C46.8808 57.2478 47.1055 56.9372 47.2837 56.5604C47.4613 56.1837 47.5748 55.7477 47.6235 55.2523C47.7146 54.283 47.5575 53.5365 47.1529 53.0132ZM39.9435 48.3466C39.9923 48.3466 40.1301 48.3449 40.3568 48.3414C40.5836 48.3378 40.7719 48.3343 40.9218 48.3308C41.0719 48.3274 41.2742 48.3361 41.5289 48.357C41.7835 48.3779 41.9979 48.4059 42.1723 48.4407C42.3466 48.4755 42.5386 48.5331 42.7477 48.6133C42.9571 48.6935 43.1245 48.7912 43.2499 48.9063C43.3755 49.0213 43.4819 49.1679 43.5689 49.3458C43.6562 49.5237 43.6998 49.7277 43.6998 49.9578C43.6998 50.1532 43.6685 50.3311 43.6058 50.4916C43.5432 50.652 43.4488 50.7864 43.3234 50.8945C43.1979 51.0026 43.0686 51.0969 42.9361 51.177C42.8037 51.2572 42.6343 51.3218 42.4286 51.3705C42.223 51.4194 42.0433 51.4578 41.89 51.4856C41.7365 51.5135 41.5447 51.5328 41.3145 51.5432C41.0842 51.5536 40.9098 51.5607 40.7912 51.5642C40.6726 51.5676 40.5105 51.5676 40.3046 51.5642C40.0987 51.5607 39.9785 51.5589 39.9436 51.5589V48.3466H39.9435V48.3466ZM44.3435 55.4722C44.2771 55.6327 44.1918 55.7723 44.0872 55.891C43.9825 56.0093 43.8446 56.1141 43.6738 56.2047C43.503 56.2955 43.3372 56.3686 43.1769 56.4244C43.0164 56.4804 42.8227 56.529 42.5962 56.571C42.3692 56.6129 42.1706 56.6424 41.9995 56.6599C41.8287 56.6774 41.6247 56.6913 41.3874 56.7018C41.1504 56.7121 40.9654 56.7174 40.8329 56.7174C40.7003 56.7174 40.5329 56.7155 40.3306 56.7121C40.1282 56.7088 39.9992 56.7071 39.9434 56.7071V53.1703C39.9991 53.1703 40.1648 53.1669 40.4404 53.1597C40.7161 53.1527 40.9409 53.1494 41.1153 53.1494C41.2897 53.1494 41.5304 53.1597 41.8375 53.1808C42.1442 53.2016 42.4024 53.2329 42.6118 53.2747C42.821 53.3166 43.0493 53.3811 43.2971 53.4684C43.5447 53.5555 43.7453 53.6619 43.8988 53.7874C44.0523 53.9132 44.1813 54.0734 44.2859 54.2688C44.3907 54.464 44.443 54.6873 44.443 54.9385C44.443 55.134 44.4099 55.3116 44.3435 55.4722Z" fill="#292929"/>
<defs>
<linearGradient id="paint0_linear_132:55" x1="87.4414" y1="98.8281" x2="23.7402" y2="9.66797" gradientUnits="userSpaceOnUse">
<stop stop-color="#141414"/>
<stop offset="1" stop-color="#969696"/>
</linearGradient>
</defs>
</svg>
