<svg width="20" height="18" viewBox="0 0 20 18" fill="none" xmlns="http://www.w3.org/2000/svg">
<g clip-path="url(#clip0)">
<path d="M7.54795 17.3584C11.8363 19.0766 17.5016 17.1973 19.3049 13.4516C16.4117 15.4434 13.3624 15.7918 10.265 13.9818C7.53876 12.3888 6.24773 9.93173 6.64698 6.94499C7.15505 3.14412 9.69284 1.03694 13.6497 0.355051C9.98279 -0.74248 4.39008 0.600541 2.24686 5.81971C0.590653 9.85357 2.24405 15.2332 7.54795 17.3584Z" fill="white"/>
<path d="M13.1156 3.8276L14.3485 4.9585L14.0644 6.60948C14.0208 6.86272 14.1873 6.986 14.4362 6.88482L15.9632 6.26428L17.4902 6.88482C17.7391 6.986 17.8963 6.86433 17.8415 6.61296L17.4798 4.9584L18.8008 3.81732C19.0009 3.64448 18.9472 3.46694 18.6807 3.42086L17.0129 3.13251L16.1974 1.71005C16.0681 1.48456 15.8585 1.48456 15.7292 1.71005L14.9137 3.13251L13.2458 3.42099C12.9793 3.467 12.921 3.64898 13.1156 3.8276Z" fill="#FED32C"/>
<path d="M15.8028 10.6237L14.6026 10.4163L14.0156 9.39259C13.9225 9.23036 13.7718 9.23036 13.6787 9.39259L13.0917 10.4163L11.8916 10.6237C11.6998 10.6568 11.658 10.7879 11.798 10.9164L12.6852 11.7302L12.4807 12.9184C12.4493 13.1006 12.5691 13.1893 12.7483 13.1165L13.8471 12.67L14.946 13.1165C15.1251 13.1893 15.2383 13.1018 15.1987 12.9209L14.9385 11.7302L15.8891 10.9091C16.0333 10.7845 15.9946 10.6568 15.8028 10.6237Z" fill="#FED32C"/>
</g>
<defs>
<clipPath id="clip0">
<rect width="19" height="18" fill="white" transform="translate(0.967773)"/>
</clipPath>
</defs>
</svg>
