<svg width="24" height="25" viewBox="0 0 24 25" fill="none" xmlns="http://www.w3.org/2000/svg">
<g clip-path="url(#clip0)">
<path d="M9.14417 21.5H2.89583C1.57525 21.5 0.5 20.379 0.5 19V3C0.5 1.621 1.57525 0.5 2.89583 0.5H14.3958C15.7164 0.5 16.7917 1.621 16.7917 3V9.06C16.7917 9.336 16.577 9.56 16.3125 9.56C16.048 9.56 15.8333 9.336 15.8333 9.06V3C15.8333 2.173 15.1884 1.5 14.3958 1.5H2.89583C2.10329 1.5 1.45833 2.173 1.45833 3V19C1.45833 19.827 2.10329 20.5 2.89583 20.5H9.14417C9.40867 20.5 9.62333 20.724 9.62333 21C9.62333 21.276 9.40867 21.5 9.14417 21.5Z" fill="white"/>
<path d="M13.4375 9.49989H3.85417C3.58967 9.49989 3.375 9.27589 3.375 8.99989C3.375 8.72389 3.58967 8.49989 3.85417 8.49989H13.4375C13.702 8.49989 13.9167 8.72389 13.9167 8.99989C13.9167 9.27589 13.702 9.49989 13.4375 9.49989Z" fill="white"/>
<path d="M9.60417 13.5H3.85417C3.58967 13.5 3.375 13.276 3.375 13C3.375 12.724 3.58967 12.5 3.85417 12.5H9.60417C9.86867 12.5 10.0833 12.724 10.0833 13C10.0833 13.276 9.86867 13.5 9.60417 13.5Z" fill="white"/>
<path d="M8.64583 5.50009H3.85417C3.58967 5.50009 3.375 5.27609 3.375 5.00009C3.375 4.72409 3.58967 4.50009 3.85417 4.50009H8.64583C8.91033 4.50009 9.125 4.72409 9.125 5.00009C9.125 5.27609 8.91033 5.50009 8.64583 5.50009Z" fill="white"/>
<path d="M15.2196 16.529H15.8819V20.3302H15.2196V16.529Z" fill="#FED32C"/>
<path d="M13.8951 16.529H14.5575V20.3302H13.8951V16.529Z" fill="#FED32C"/>
<path d="M16.5443 16.529H17.2066V20.3302H16.5443V16.529Z" fill="#FED32C"/>
<path d="M19.8561 12.3823H17.2068V12.0367C17.2068 11.4651 16.7611 11 16.2132 11H14.8886C14.3407 11 13.8951 11.4651 13.8951 12.0367V12.3823H11.2457V14.4557H11.9356L12.5446 21.7642C12.5709 22.3173 13.0052 22.7493 13.5369 22.7493H17.5649C18.0966 22.7493 18.5309 22.3173 18.5572 21.7642L19.1662 14.4557H19.8561V12.3823ZM14.5574 12.0367C14.5574 11.8462 14.706 11.6911 14.8886 11.6911H16.2132C16.3959 11.6911 16.5444 11.8462 16.5444 12.0367V12.3823H14.5574V12.0367ZM11.9081 13.0734H19.1938V13.7645H11.9081V13.0734ZM17.8958 21.7269C17.8884 21.9127 17.7431 22.0581 17.5649 22.0581H13.5369C13.3588 22.0581 13.2134 21.9127 13.206 21.7269C12.5581 13.9469 12.6024 14.4789 12.6004 14.4557H18.5014C18.4996 14.4765 18.5409 13.9818 17.8958 21.7269Z" fill="#FED32C"/>
</g>
<defs>
<clipPath id="clip0">
<rect width="23" height="24" fill="white" transform="translate(0.5 0.5)"/>
</clipPath>
</defs>
</svg>
