<svg width="35" height="35" viewBox="0 0 35 35" fill="none" xmlns="http://www.w3.org/2000/svg">
<g clip-path="url(#clip0)">
<path d="M21.1535 35.0002C22.3237 35.0002 23.3442 33.9797 23.3442 32.8094V27.693H24.8071C25.6849 27.693 26.2699 27.1078 26.2699 26.2302V11.617H8.72998V26.2303C8.72998 27.108 9.31511 27.6931 10.1928 27.6931H11.6557V32.8095C11.6557 33.9798 12.676 35.0003 13.8465 35.0003C15.0166 35.0003 16.037 33.9798 16.037 32.8095V27.6931H18.9628V32.8095C18.9627 33.9797 19.9832 35.0002 21.1535 35.0002Z" fill="white"/>
<path d="M29.9234 26.2303C31.0937 26.2303 32.114 25.2099 32.114 24.0395V13.8068C32.114 12.6428 31.0937 11.617 29.9234 11.617C28.7531 11.617 27.7327 12.6428 27.7327 13.8068V24.0395C27.7327 25.2098 28.753 26.2303 29.9234 26.2303Z" fill="white"/>
<path d="M5.07635 26.2303C6.24672 26.2303 7.26712 25.2099 7.26712 24.0395V13.8068C7.26712 12.6428 6.24683 11.617 5.07635 11.617C3.90609 11.617 2.8858 12.6428 2.8858 13.8068V24.0395C2.8858 25.2098 3.90609 26.2303 5.07635 26.2303Z" fill="white"/>
<path d="M24.5144 0.220736C24.2219 -0.0735787 23.7865 -0.0735787 23.4941 0.220736L21.5321 2.17618L21.4416 2.26658C20.2782 1.68402 18.9739 1.39309 17.5214 1.39029C17.5142 1.39029 17.5072 1.39005 17.5001 1.39005H17.4999C17.4925 1.39005 17.4857 1.39029 17.4784 1.39029C16.026 1.39309 14.7216 1.68402 13.5584 2.26658L13.4676 2.17618L11.5058 0.220736C11.2131 -0.0735787 10.7779 -0.0735787 10.4855 0.220736C10.1928 0.513416 10.1928 0.947764 10.4855 1.24021L12.3833 3.13843C11.7718 3.54673 11.2173 4.04636 10.7351 4.61783C9.58057 5.98627 8.8442 7.76723 8.74294 9.69686C8.74201 9.71695 8.74002 9.7368 8.73909 9.75689C8.7329 9.88828 8.72998 10.0204 8.72998 10.1529H26.2699C26.2699 10.0204 26.2667 9.88828 26.2608 9.75689C26.2598 9.7368 26.2578 9.71695 26.2567 9.69686C26.1556 7.76723 25.419 5.98616 24.2646 4.61794C23.7826 4.04648 23.2278 3.54685 22.6163 3.13854L24.5144 1.24033C24.8071 0.947764 24.8071 0.513416 24.5144 0.220736ZM13.8437 7.59881C13.2385 7.59881 12.7478 7.10817 12.7478 6.50296C12.7478 5.89774 13.2385 5.4071 13.8437 5.4071C14.4489 5.4071 14.9396 5.89774 14.9396 6.50296C14.9396 7.10817 14.4489 7.59881 13.8437 7.59881ZM21.1561 7.59881C20.5509 7.59881 20.0603 7.10817 20.0603 6.50296C20.0603 5.89774 20.5509 5.4071 21.1561 5.4071C21.7614 5.4071 22.252 5.89774 22.252 6.50296C22.252 7.10817 21.7614 7.59881 21.1561 7.59881Z" fill="white"/>
</g>
<defs>
<clipPath id="clip0">
<rect width="35" height="35" fill="white"/>
</clipPath>
</defs>
</svg>
